<svg xmlns="http://www.w3.org/2000/svg">
    <g id="arrow_up">
        <path id="Vector"
              d="M19.5416 14.5141C19.542 14.7478 19.4606 14.9742 19.3116 15.1541C19.2276 15.2554 19.1245 15.3391
              19.0082 15.4005C18.8918 15.4618 18.7645 15.4996 18.6335 15.5117C18.5026 15.5238 18.3705 15.5099 18.2449
              15.4708C18.1193 15.4318 18.0026 15.3683 17.9016 15.2841L12.5416 10.8041L7.17157 15.1241C7.06927 15.2072
              6.95158 15.2692 6.82524 15.3067C6.6989 15.3441 6.56641 15.3562 6.43538 15.3423C6.30435 15.3283 6.17737
              15.2886 6.06174 15.2254C5.94611 15.1623 5.84409 15.0769 5.76157 14.9741C5.67053 14.8707 5.60187 14.7495
              5.55988 14.6182C5.51788 14.487 5.50348 14.3485 5.51756 14.2114C5.53165 14.0743 5.57391 13.9416 5.64172
              13.8216C5.70952 13.7016 5.80139 13.5969 5.91156 13.5141L11.9116 8.68414C12.0905 8.53706 12.3149 8.45665
              12.5466 8.45665C12.7782 8.45665 13.0026 8.53706 13.1816 8.68414L19.1816 13.6841C19.3026 13.7845 19.3983
              13.9119 19.4608 14.0561C19.5233 14.2003 19.551 14.3572 19.5416 14.5141Z"
              fill="currentColor" fill-opacity="1.000000" fill-rule="nonzero"/>
    </g>
    <g id="arrow_down">
        <path id="Vector"
              d="M5.51414 9.45842C5.51369 9.22477 5.59506 8.99834 5.74414 8.81842C5.82809 8.71717 5.9312 8.63346
              6.04755 8.57211C6.16389 8.51076 6.2912 8.47297 6.42216 8.46089C6.55315 8.44881 6.68523 8.46269 6.81082
              8.50174C6.93643 8.54078 7.0531 8.60422 7.15414 8.68842L12.5141 13.1684L17.8841 8.84843C17.9864 8.76536
              18.1041 8.70333 18.2305 8.6659C18.3568 8.62846 18.4893 8.61637 18.6203 8.63031C18.7514 8.64425 18.8783
              8.68394 18.994 8.74712C19.1096 8.8103 19.2116 8.8957 19.2941 8.99842C19.3852 9.10189 19.4538 9.22306
              19.4958 9.35432C19.5378 9.48558 19.5522 9.62411 19.5381 9.7612C19.5241 9.89829 19.4818 10.031 19.414
              10.151C19.3462 10.271 19.2543 10.3756 19.1441 10.4584L13.1441 15.2884C12.9652 15.4355 12.7408 15.5159
              12.5091 15.5159C12.2775 15.5159 12.0531 15.4355 11.8741 15.2884L5.87415 10.2884C5.75313 10.1881 5.65746
              10.0607 5.59491 9.91647C5.53236 9.77225 5.5047 9.61533 5.51414 9.45842Z"
              fill="currentColor" fill-opacity="1.000000" fill-rule="nonzero"/>
    </g>
    <g id="eye_outline">
        <path fill="currentColor" id="Vector"
              d="M21.87 11.5C21.23 10.39 17.71 4.81999 11.73 5C6.20001 5.14 3.00001 10 2.13001 11.5C2.04224 11.652 1.99603 11.8245 1.99603 12C1.99603 12.1755 2.04224 12.348 2.13001 12.5C2.76001 13.59 6.13001 19 12.02 19L12.27 19C17.8 18.86 21.01 14 21.87 12.5C21.9578 12.348 22.004 12.1755 22.004 12C22.004 11.8245 21.9578 11.652 21.87 11.5ZM12.22 17C7.91001 17.1 5.10001 13.41 4.22001 12C5.22001 10.39 7.83001 7.09999 11.83 7C16.12 6.89 18.94 10.59 19.83 12C18.8 13.61 16.22 16.9 12.22 17Z"
              fill-opacity="1.000000" fill-rule="nonzero"/>
        <path fill="currentColor" id="Vector"
              d="M12 8.5C11.3078 8.5 10.6311 8.70528 10.0555 9.08986C9.47993 9.47444 9.03133 10.0211 8.76642 10.6606C8.50152 11.3002 8.43221 12.0039 8.56725 12.6828C8.7023 13.3618 9.03564 13.9854 9.52513 14.4749C10.0146 14.9644 10.6383 15.2977 11.3172 15.4328C11.9961 15.5678 12.6999 15.4985 13.3394 15.2336C13.9789 14.9687 14.5256 14.5201 14.9101 13.9445C15.2947 13.3689 15.5 12.6922 15.5 12C15.5 11.0717 15.1313 10.1815 14.4749 9.52513C13.8185 8.86874 12.9283 8.5 12 8.5ZM12 13.5C11.7033 13.5 11.4133 13.412 11.1666 13.2472C10.92 13.0824 10.7277 12.8481 10.6142 12.574C10.5007 12.2999 10.4709 11.9983 10.5288 11.7074C10.5867 11.4164 10.7296 11.1491 10.9393 10.9393C11.1491 10.7296 11.4164 10.5867 11.7074 10.5288C11.9983 10.4709 12.2999 10.5007 12.574 10.6142C12.8481 10.7277 13.0824 10.92 13.2472 11.1666C13.412 11.4133 13.5 11.7033 13.5 12C13.5 12.3978 13.342 12.7794 13.0607 13.0607C12.7794 13.342 12.3978 13.5 12 13.5Z"
              fill-opacity="1.000000" fill-rule="nonzero"/>
    </g>
    <g id="eye_off_outline">
        <path fill="currentColor" id="Vector"
              d="M4.71 3.29001C4.61676 3.19676 4.50607 3.1228 4.38425 3.07234C4.26243 3.02188 4.13186 2.99591 4 2.99591C3.86814 2.99591 3.73758 3.02188 3.61575 3.07234C3.49393 3.1228 3.38324 3.19676 3.29 3.29001C3.1017 3.4783 2.99591 3.7337 2.99591 4C2.99591 4.2663 3.1017 4.5217 3.29 4.71001L8.92 10.34C8.5638 11.0026 8.43059 11.7624 8.54009 12.5067C8.64959 13.2509 8.99599 13.9401 9.52794 14.4721C10.0599 15.004 10.7491 15.3504 11.4934 15.4599C12.2376 15.5694 12.9974 15.4362 13.66 15.08L19.29 20.71C19.383 20.8037 19.4936 20.8781 19.6154 20.9289C19.7373 20.9797 19.868 21.0058 20 21.0058C20.132 21.0058 20.2627 20.9797 20.3846 20.9289C20.5064 20.8781 20.617 20.8037 20.71 20.71C20.8037 20.617 20.8781 20.5064 20.9289 20.3846C20.9797 20.2627 21.0058 20.132 21.0058 20C21.0058 19.868 20.9797 19.7373 20.9289 19.6154C20.8781 19.4936 20.8037 19.383 20.71 19.29L4.71 3.29001ZM12 13.5C11.6022 13.5 11.2206 13.342 10.9393 13.0607C10.658 12.7794 10.5 12.3978 10.5 12L10.5 11.93L12.06 13.49L12 13.5Z"
              fill-opacity="1.000000" fill-rule="nonzero"/>
        <path fill="currentColor" id="Vector"
              d="M12.22 17C7.92001 17.1 5.10001 13.41 4.22001 12C4.84648 11.0007 5.59937 10.0865 6.46001 9.28L5.00001 7.87C3.87133 8.93347 2.90442 10.1564 2.13001 11.5C2.04224 11.652 1.99603 11.8245 1.99603 12C1.99603 12.1755 2.04224 12.348 2.13001 12.5C2.76001 13.59 6.13001 19 12.02 19L12.27 19C13.3776 18.9671 14.4708 18.7404 15.5 18.33L13.92 16.75C13.3644 16.8962 12.7942 16.98 12.22 17Z"
              fill-opacity="1.000000" fill-rule="nonzero"/>
        <path fill="currentColor" id="Vector"
              d="M21.87 11.5C21.23 10.39 17.7 4.81999 11.73 5C10.6225 5.03285 9.52924 5.25961 8.5 5.67L10.08 7.25C10.6356 7.10382 11.2058 7.01997 11.78 7C16.07 6.89 18.89 10.59 19.78 12C19.1381 13.0023 18.3682 13.9167 17.49 14.72L19 16.13C20.1428 15.0693 21.1234 13.8462 21.91 12.5C21.9918 12.3445 22.0311 12.1702 22.0241 11.9946C22.0171 11.8191 21.9639 11.6485 21.87 11.5Z"
              fill-opacity="1.000000" fill-rule="nonzero"/>
    </g>
    <g id="search">
        <path fill="currentColor" id="Vector"
              d="M20.71 19.29L17.31 15.9C18.407 14.5025 19.0022 12.7767 19 11C19 9.41775 18.5308 7.87103 17.6518 6.55544C16.7727 5.23985 15.5233 4.21447 14.0615 3.60897C12.5997 3.00347 10.9911 2.84504 9.43928 3.15372C7.88743 3.4624 6.46197 4.22433 5.34315 5.34315C4.22433 6.46197 3.4624 7.88743 3.15372 9.43928C2.84504 10.9911 3.00347 12.5997 3.60897 14.0615C4.21447 15.5233 5.23985 16.7727 6.55544 17.6518C7.87103 18.5308 9.41776 19 11 19C12.7767 19.0022 14.5025 18.407 15.9 17.31L19.29 20.71C19.383 20.8037 19.4936 20.8781 19.6154 20.9289C19.7373 20.9797 19.868 21.0058 20 21.0058C20.132 21.0058 20.2627 20.9797 20.3846 20.9289C20.5064 20.8781 20.617 20.8037 20.71 20.71C20.8037 20.617 20.8781 20.5064 20.9289 20.3846C20.9797 20.2627 21.0058 20.132 21.0058 20C21.0058 19.868 20.9797 19.7373 20.9289 19.6154C20.8781 19.4936 20.8037 19.383 20.71 19.29ZM5 11C5 9.81332 5.3519 8.65328 6.01118 7.66658C6.67048 6.67989 7.60755 5.91085 8.7039 5.45673C9.80026 5.0026 11.0067 4.88378 12.1705 5.11529C13.3344 5.3468 14.4035 5.91825 15.2426 6.75736C16.0818 7.59648 16.6532 8.66558 16.8847 9.82946C17.1162 10.9933 16.9974 12.1997 16.5433 13.2961C16.0892 14.3925 15.3201 15.3295 14.3334 15.9888C13.3467 16.6481 12.1867 17 11 17C9.40871 17 7.88258 16.3679 6.75736 15.2426C5.63214 14.1174 5 12.5913 5 11Z"
              fill-opacity="1.000000" fill-rule="nonzero"/>
    </g>
    <g id="close">
        <path id="Vector"
              d="M13.41 12L17.71 7.71C17.8983 7.5217 18.0041 7.2663 18.0041 7C18.0041 6.7337 17.8983 6.47831 17.71 6.29C17.5217 6.1017 17.2663 5.99591 17 5.99591C16.7337 5.99591 16.4783 6.1017 16.29 6.29L12 10.59L7.71 6.29C7.5217 6.1017 7.2663 5.99591 7 5.99591C6.7337 5.99591 6.4783 6.1017 6.29 6.29C6.1017 6.47831 5.99591 6.7337 5.99591 7C5.99591 7.2663 6.1017 7.5217 6.29 7.71L10.59 12L6.29 16.29C6.19627 16.383 6.12188 16.4936 6.07111 16.6154C6.02034 16.7373 5.9942 16.868 5.9942 17C5.9942 17.132 6.02034 17.2627 6.07111 17.3846C6.12188 17.5064 6.19627 17.617 6.29 17.71C6.38296 17.8037 6.49356 17.8781 6.61543 17.9289C6.73728 17.9797 6.86799 18.0058 7 18.0058C7.13201 18.0058 7.26272 17.9797 7.38457 17.9289C7.50644 17.8781 7.61704 17.8037 7.71 17.71L12 13.41L16.29 17.71C16.383 17.8037 16.4936 17.8781 16.6154 17.9289C16.7373 17.9797 16.868 18.0058 17 18.0058C17.132 18.0058 17.2627 17.9797 17.3846 17.9289C17.5064 17.8781 17.617 17.8037 17.71 17.71C17.8037 17.617 17.8781 17.5064 17.9289 17.3846C17.9797 17.2627 18.0058 17.132 18.0058 17C18.0058 16.868 17.9797 16.7373 17.9289 16.6154C17.8781 16.4936 17.8037 16.383 17.71 16.29L13.41 12Z"
              fill="currentColor" fill-opacity="1.000000" fill-rule="nonzero"/>
    </g>
    <g id="camera">
        <path fill-opacity="1.000000" fill-rule="nonzero" fill="currentColor" id="Vector"
              d="M21 6h-1.5a.5.5 0 0 1-.5-.5A1.502 1.502 0 0 0 17.5 4h-6A1.502 1.502 0 0 0 10 5.5a.5.5 0 0 1-.5.5H8V5H4v1H3a2.002 2.002 0 0 0-2 2v10a2.002 2.002 0 0 0 2 2h18a2.002 2.002 0 0 0 2-2V8a2.002 2.002 0 0 0-2-2zm1 12a1.001 1.001 0 0 1-1 1H3a1.001 1.001 0 0 1-1-1V8a1.001 1.001 0 0 1 1-1h2V6h2v1h2.5A1.502 1.502 0 0 0 11 5.5a.5.5 0 0 1 .5-.5h6a.5.5 0 0 1 .5.5A1.502 1.502 0 0 0 19.5 7H21a1.001 1.001 0 0 1 1 1zM8.2 13h-1a4.796 4.796 0 0 1 8.8-2.644V9h1v3h-3v-1h1.217A3.79 3.79 0 0 0 8.2 13zm7.6 0h1A4.796 4.796 0 0 1 8 15.644V17H7v-3h3v1H8.783a3.79 3.79 0 0 0 7.017-2z"/>
    </g>
    <g id="logout">
        <path fill-opacity="1.000000" fill-rule="nonzero" fill="currentColor" id="Vector"
              d="M7.707,8.707,5.414,11H17a1,1,0,0,1,0,2H5.414l2.293,2.293a1,1,0,1,1-1.414,1.414l-4-4a1,1,0,0,1,0-1.414l4-4A1,1,0,1,1,7.707,8.707ZM21,1H13a1,1,0,0,0,0,2h7V21H13a1,1,0,0,0,0,2h8a1,1,0,0,0,1-1V2A1,1,0,0,0,21,1Z"/>
    </g>

    <g id="edit" clip-path="url(#clip0_5918_2436)" >

        <path d="M12.6666 13.3334H3.33329C3.15648 13.3334 2.98691 13.4036 2.86189 13.5286C2.73686 13.6537 2.66663 13.8232 2.66663 14C2.66663 14.1769 2.73686 14.3464 2.86189 14.4714C2.98691 14.5965 3.15648 14.6667 3.33329 14.6667H12.6666C12.8434 14.6667 13.013 14.5965 13.138 14.4714C13.2631 14.3464 13.3333 14.1769 13.3333 14C13.3333 13.8232 13.2631 13.6537 13.138 13.5286C13.013 13.4036 12.8434 13.3334 12.6666 13.3334Z"
              fill="white"/>
        <path d="M3.33329 12H3.39329L6.17329 11.7467C6.47782 11.7163 6.76264 11.5821 6.97995 11.3667L12.98 5.36665C13.2128 5.12063 13.3387 4.79233 13.3299 4.45368C13.3212 4.11503 13.1786 3.79366 12.9333 3.55999L11.1066 1.73332C10.8682 1.50938 10.5558 1.38089 10.2288 1.37229C9.90187 1.36368 9.58314 1.47557 9.33329 1.68665L3.33329 7.68665C3.1178 7.90396 2.98362 8.18879 2.95329 8.49332L2.66662 11.2733C2.65764 11.371 2.67031 11.4694 2.70373 11.5616C2.73715 11.6538 2.79049 11.7374 2.85995 11.8067C2.92225 11.8684 2.99612 11.9173 3.07735 11.9505C3.15857 11.9837 3.24555 12.0005 3.33329 12ZM10.18 2.66665L12 4.48665L10.6666 5.78665L8.87995 3.99999L10.18 2.66665ZM4.24662 8.60665L7.99995 4.87999L9.79995 6.67999L6.06662 10.4133L4.06662 10.6L4.24662 8.60665Z"
              fill="white"/>

    </g>
</svg>