<svg xmlns="http://www.w3.org/2000/svg">
    <g id="arrow_up">
        <path id="Vector"
              d="M19.5416 14.5141C19.542 14.7478 19.4606 14.9742 19.3116 15.1541C19.2276 15.2554 19.1245 15.3391
              19.0082 15.4005C18.8918 15.4618 18.7645 15.4996 18.6335 15.5117C18.5026 15.5238 18.3705 15.5099 18.2449
              15.4708C18.1193 15.4318 18.0026 15.3683 17.9016 15.2841L12.5416 10.8041L7.17157 15.1241C7.06927 15.2072
              6.95158 15.2692 6.82524 15.3067C6.6989 15.3441 6.56641 15.3562 6.43538 15.3423C6.30435 15.3283 6.17737
              15.2886 6.06174 15.2254C5.94611 15.1623 5.84409 15.0769 5.76157 14.9741C5.67053 14.8707 5.60187 14.7495
              5.55988 14.6182C5.51788 14.487 5.50348 14.3485 5.51756 14.2114C5.53165 14.0743 5.57391 13.9416 5.64172
              13.8216C5.70952 13.7016 5.80139 13.5969 5.91156 13.5141L11.9116 8.68414C12.0905 8.53706 12.3149 8.45665
              12.5466 8.45665C12.7782 8.45665 13.0026 8.53706 13.1816 8.68414L19.1816 13.6841C19.3026 13.7845 19.3983
              13.9119 19.4608 14.0561C19.5233 14.2003 19.551 14.3572 19.5416 14.5141Z"
              fill="currentColor" fill-opacity="1.000000" fill-rule="nonzero"/>
    </g>
    <g id="arrow_down">
        <path id="Vector"
              d="M5.51414 9.45842C5.51369 9.22477 5.59506 8.99834 5.74414 8.81842C5.82809 8.71717 5.9312 8.63346
              6.04755 8.57211C6.16389 8.51076 6.2912 8.47297 6.42216 8.46089C6.55315 8.44881 6.68523 8.46269 6.81082
              8.50174C6.93643 8.54078 7.0531 8.60422 7.15414 8.68842L12.5141 13.1684L17.8841 8.84843C17.9864 8.76536
              18.1041 8.70333 18.2305 8.6659C18.3568 8.62846 18.4893 8.61637 18.6203 8.63031C18.7514 8.64425 18.8783
              8.68394 18.994 8.74712C19.1096 8.8103 19.2116 8.8957 19.2941 8.99842C19.3852 9.10189 19.4538 9.22306
              19.4958 9.35432C19.5378 9.48558 19.5522 9.62411 19.5381 9.7612C19.5241 9.89829 19.4818 10.031 19.414
              10.151C19.3462 10.271 19.2543 10.3756 19.1441 10.4584L13.1441 15.2884C12.9652 15.4355 12.7408 15.5159
              12.5091 15.5159C12.2775 15.5159 12.0531 15.4355 11.8741 15.2884L5.87415 10.2884C5.75313 10.1881 5.65746
              10.0607 5.59491 9.91647C5.53236 9.77225 5.5047 9.61533 5.51414 9.45842Z"
              fill="currentColor" fill-opacity="1.000000" fill-rule="nonzero"/>
    </g>
</svg>